<svg width="27" height="20" viewBox="0 0 27 20" fill="none" xmlns="http://www.w3.org/2000/svg">
<path fill-rule="evenodd" clip-rule="evenodd" d="M19.3426 5.57373C19.3426 4.81277 19.6175 4.15939 20.1673 3.6056C20.7171 3.0558 21.3745 2.7809 22.1354 2.7809C22.9243 2.7809 23.5856 3.0558 24.1235 3.6056C24.6613 4.1554 24.9282 4.81277 24.9282 5.57373C24.9282 6.36257 24.6573 7.02393 24.1235 7.56178C23.5856 8.09963 22.9243 8.36656 22.1354 8.36656C21.3745 8.36656 20.7211 8.09963 20.1673 7.56178C19.6175 7.02393 19.3426 6.36257 19.3426 5.57373ZM16.8247 10.0598H26.1474V0.617554L0.852539 3.255V10.0598H8.80075V19.3825H16.8247V10.0598Z" fill="#B51F1F"/>
</svg>
